# xmcd
#
# Track frame offsets:
#	150
#	16172
#	37314
#	58397
#	80510
#
# Disc length: 1348 seconds
# Revision: 0
# Processed by: cddbd v1.5.2PL0 Copyright (c) Steve Scherf et al.
# Submitted via: dBpowerAMP V12.0
#
DISCID=3f054205
DTITLE=Ward's Xpress - Five Lanes
DYEAR=2012
DGENRE=Blues Rock
TTITLE0=Occupy
TTITLE1=So Many Roads
TTITLE2=Wastin my Time
TTITLE3=The Dukes
TTITLE4=All That Matters
EXTD=
EXTT0=
EXTT1=
EXTT2=
EXTT3=
EXTT4=
PLAYORDER=
